Jump_normalized_Motion_pl03
version=1
nRows=12
nColumns=43
inDegrees=yes
endheader
time		pelvis_tilt		pelvis_list		pelvis_rotation		pelvis_tx		pelvis_ty		pelvis_tz		hip_flexion_r		hip_adduction_r		hip_rotation_r		knee_angle_r		ankle_angle_r		subtalar_angle_r		mtp_angle_r		hip_flexion_l		hip_adduction_l		hip_rotation_l		knee_angle_l		ankle_angle_l		subtalar_angle_l		mtp_angle_l		lumbar_extension		lumbar_bending		lumbar_rotation		neck_flexion		neck_lateral_bending		neck_rotation		arm_flex_r		arm_add_r		arm_rot_r		elbow_flex_r		pro_sup_r		wrist_flex_r		wrist_dev_r		hand_finger_flex_r		arm_flex_l		arm_add_l		arm_rot_l		elbow_flex_l		pro_sup_l		wrist_flex_l		wrist_dev_l		hand_finger_flex_l		
0.300000		-1.348678		-9.847561		91.762453		0.015336		1.752938		1.902603		80.316554		-8.468199		8.433353		-134.479509		28.080900		-9.007859		0.174163		78.648882		-0.086792		7.665957		-135.504504		32.746822		-2.776261		10.902036		-56.078321		0.525316		-0.474476		37.535107		0.123098		-1.744209		94.700689		-15.092728		30.973763		50.286833		66.598882		-31.948706		12.002161		31.967653		95.195958		-8.386443		18.609976		56.473336		104.941915		-13.683156		20.053988		72.885987		
0.303258		-1.332493		-10.018830		91.758254		0.015363		1.752431		1.901010		80.367846		-8.483454		8.449947		-134.599214		28.098389		-9.011072		0.196820		78.686669		-0.098011		7.681901		-135.604032		32.782157		-2.791799		10.926396		-55.920993		0.546668		-0.494586		37.599336		0.099402		-1.750721		95.502357		-14.773455		30.863921		50.564564		66.555448		-31.954109		11.871212		31.923732		95.945895		-8.124418		18.533189		56.624349		104.848290		-13.778238		19.980544		72.831902		
0.306515		-1.313324		-10.220378		91.741599		0.015376		1.752073		1.899473		80.432557		-8.490633		8.453072		-134.662151		28.099338		-8.985187		0.228427		78.734729		-0.093082		7.709299		-135.671681		32.815040		-2.818522		10.959432		-55.747891		0.564925		-0.507158		37.769423		0.079249		-1.743825		96.359002		-14.437500		30.822656		50.776672		66.492824		-31.946304		11.745371		31.859768		96.760144		-7.856852		18.509413		56.677335		104.714829		-13.890124		19.905211		72.755809		
0.309773		-1.269919		-10.416478		91.709938		0.015356		1.751708		1.898018		80.510510		-8.479885		8.438204		-134.739668		28.050679		-8.860639		0.294084		78.804282		-0.095972		7.743286		-135.752831		32.811696		-2.907237		11.015600		-55.588293		0.581452		-0.470668		38.045809		0.101525		-1.688584		97.387001		-14.196571		31.105907		50.858770		66.375831		-31.821268		11.642901		31.756521		97.711317		-7.620035		18.713325		56.569578		104.425907		-14.022643		19.806475		72.652658		
0.313030		-1.254025		-10.577676		91.692282		0.015354		1.751373		1.896290		80.520411		-8.484959		8.455184		-134.824885		28.048942		-8.833257		0.313759		78.794054		-0.110651		7.756922		-135.842423		32.815220		-2.936298		11.031152		-55.419478		0.602938		-0.472721		37.913045		0.116758		-1.684035		98.175816		-13.944114		31.090105		51.186111		66.352723		-31.769457		11.540520		31.736707		98.436469		-7.422484		18.679065		56.770274		104.338625		-14.085631		19.730011		72.625200		
0.316288		-1.242371		-10.755973		91.668231		0.015356		1.751087		1.894573		80.542934		-8.492368		8.460355		-134.903219		28.045296		-8.802029		0.327977		78.798254		-0.117018		7.763850		-135.922679		32.822210		-2.965339		11.041591		-55.244440		0.618071		-0.474311		37.838470		0.132142		-1.680800		98.987635		-13.681373		31.068590		51.492004		66.345368		-31.717921		11.443834		31.724492		99.184893		-7.216861		18.633247		56.936524		104.280380		-14.144032		19.657496		72.604802		
0.319545		-1.175190		-10.895873		91.626887		0.015258		1.751191		1.893096		80.504610		-8.463055		8.462121		-134.888517		27.975438		-8.448060		0.512838		78.761191		-0.117962		7.783676		-135.931781		32.667078		-3.310300		11.140783		-55.170554		0.655793		-0.364534		38.081157		0.166644		-1.634349		100.323046		-13.765779		32.203275		51.511363		65.943763		-31.197273		11.246496		31.553616		100.317635		-7.108661		19.281510		56.647206		103.497285		-14.492213		19.340610		72.685236		
0.322803		-1.154831		-11.070822		91.616350		0.015245		1.751024		1.891302		80.491361		-8.475997		8.466575		-134.967677		27.975971		-8.367620		0.571220		78.754292		-0.127628		7.775973		-135.991216		32.646054		-3.400458		11.175084		-55.006645		0.679597		-0.342750		38.093865		0.169066		-1.630548		101.220551		-13.565450		32.326349		51.724383		65.819340		-31.094438		11.099566		31.485001		101.119204		-6.909063		19.340840		56.729599		103.269537		-14.650714		19.202354		72.699174		
0.326061		-1.145484		-11.323077		91.612339		0.015285		1.751088		1.889611		80.524198		-8.481446		8.453224		-134.955807		27.982061		-8.315881		0.613513		78.790276		-0.113184		7.776018		-135.967855		32.648836		-3.450037		11.202346		-54.804402		0.698362		-0.353896		38.282956		0.166083		-1.632362		102.112956		-13.240118		32.272703		51.864962		65.732469		-31.092158		10.961474		31.409861		101.969353		-6.655268		19.295077		56.715054		103.146810		-14.829812		19.087055		72.698520		
0.329318		-1.093953		-11.435557		91.612402		0.015160		1.751177		1.887851		80.418819		-8.522517		8.446187		-134.982807		27.945381		-8.078641		0.825698		78.725109		-0.089003		7.793187		-136.023958		32.467093		-3.743157		11.326568		-54.720664		0.746982		-0.264452		38.315609		0.214671		-1.585873		103.267127		-13.215285		32.947029		51.912909		65.313570		-30.865070		10.719525		31.178979		102.944743		-6.499922		19.768100		56.566834		102.504372		-15.504916		18.653117		72.944044		
0.332576		-1.079231		-11.619147		91.599250		0.015158		1.751219		1.885940		80.377079		-8.544273		8.424589		-135.013406		27.946702		-7.992859		0.917142		78.691429		-0.080803		7.790985		-136.066053		32.418630		-3.853882		11.383707		-54.557089		0.763477		-0.253464		38.277689		0.215984		-1.573748		104.165100		-13.025518		33.076093		52.124096		65.141297		-30.793160		10.550812		31.076601		103.757164		-6.328711		19.845437		56.636820		102.238040		-15.820502		18.446240		73.036156		
0.335833		-1.072748		-11.926742		91.586325		0.015226		1.751449		1.884214		80.423063		-8.532821		8.413810		-134.929183		27.971543		-7.960940		0.974979		78.751907		-0.084864		7.790535		-135.984289		32.432961		-3.895584		11.426308		-54.315944		0.769343		-0.288247		38.591146		0.198658		-1.546117		105.091843		-12.676178		33.034587		52.205042		65.072519		-30.799176		10.420052		31.000850		104.661258		-6.081870		19.783583		56.569348		102.129866		-16.043580		18.346788		73.055382		
